<svg width="32" height="32" viewBox="0 0 32 32" fill="none" xmlns="http://www.w3.org/2000/svg">
<path d="M16.2521 28V22.417H9.40065C6.29705 22.417 3.78125 19.9012 3.78125 16.7976V15.4575C3.78125 12.5431 5.71983 10.072 8.37434 9.26672L6.61329 5.0169L9.06913 4L12.2374 11.6473H9.39947C7.7642 11.6473 6.43812 12.9734 6.43812 14.6087V16.7965C6.43812 18.4317 7.7642 19.7578 9.39947 19.7578H18.909V22.7509C20.8369 21.3355 23.4621 19.4087 23.9876 19.0231C24.9645 18.3071 25.5476 17.1574 25.5476 15.9489V14.6087C25.5476 12.9734 24.2215 11.6473 22.5862 11.6473H14.1113L12.9451 8.98927H22.5851C25.6887 8.98927 28.2045 11.5051 28.2045 14.6087V15.9477C28.2045 18.0003 27.2158 19.9506 25.5594 21.165C24.7082 21.7893 18.3658 26.4447 18.3658 26.4447L16.2509 27.9977L16.2521 28Z" fill="#d4d4d8"/>
<path d="M23.0492 4.00023L20.3594 10.4941L22.8151 11.5113L25.505 5.01742L23.0492 4.00023Z" fill="#d4d4d8"/>
<path d="M5.59961 14.2764H2.39844V17.2295H5.59961V14.2764Z" fill="#d4d4d8"/>
<path d="M29.7012 14.2764H26.5V17.2295H29.7012V14.2764Z" fill="#d4d4d8"/>
</svg>
